<svg width="26" height="30" viewBox="0 0 26 30" fill="none" xmlns="http://www.w3.org/2000/svg">
    <path d="M6.49554 16.1648C6.52719 16.1648 6.55884 16.1648 6.59682 16.1648C6.60948 16.1648 6.62214 16.1648 6.6348 16.1648C6.65379 16.1648 6.67911 16.1648 6.6981 16.1648C8.55273 16.1338 10.0529 15.4939 11.1606 14.27C13.5976 11.5738 13.1925 6.95175 13.1482 6.51067C12.9899 3.19942 11.3948 1.61524 10.0782 0.875958C9.09709 0.323048 7.9514 0.0248499 6.67278 0H6.62847C6.62214 0 6.60948 0 6.60315 0H6.56517C5.86256 0 4.48266 0.111824 3.15974 0.851108C1.83048 1.59039 0.210046 3.17457 0.0518012 6.51067C0.00749261 6.95175 -0.397614 11.5738 2.03936 14.27C3.14075 15.4939 4.64091 16.1338 6.49554 16.1648ZM1.74186 6.66598C1.74186 6.64734 1.74819 6.6287 1.74819 6.61628C1.95707 2.16194 5.17894 1.68358 6.55884 1.68358H6.58416C6.59682 1.68358 6.61581 1.68358 6.6348 1.68358C8.34384 1.72085 11.2492 2.40422 11.4454 6.61628C11.4454 6.63491 11.4454 6.65355 11.4518 6.66598C11.4581 6.70947 11.9012 10.9339 9.88832 13.158C9.09076 14.0402 8.02735 14.475 6.62847 14.4875C6.61581 14.4875 6.60948 14.4875 6.59682 14.4875C6.58416 14.4875 6.57783 14.4875 6.56517 14.4875C5.17261 14.475 4.10288 14.0402 3.31165 13.158C1.3051 10.9464 1.73553 6.70325 1.74186 6.66598Z" transform="translate(6.39368)" fill="white"/>
    <path d="M25.9982 7.72557C25.9982 7.71936 25.9982 7.71314 25.9982 7.70693C25.9982 7.65723 25.9919 7.60753 25.9919 7.55162C25.9539 6.32155 25.8716 3.44518 23.1245 2.52573C23.1055 2.51952 23.0802 2.51331 23.0612 2.5071C20.2065 1.79266 17.8328 0.17742 17.8075 0.158782C17.4213 -0.108354 16.8896 -0.0151657 16.6175 0.363795C16.3453 0.742755 16.4402 1.2646 16.8263 1.53174C16.9339 1.60629 19.4532 3.32714 22.6055 4.12234C24.0803 4.63797 24.2449 6.18488 24.2892 7.60132C24.2892 7.65723 24.2892 7.70693 24.2955 7.75663C24.3018 8.31575 24.2639 9.17928 24.1626 9.67628C23.1372 10.2478 19.1177 12.2234 13.0031 12.2234C6.91387 12.2234 2.86912 10.2416 1.83737 9.67007C1.73609 9.17307 1.69178 8.30954 1.70444 7.75042C1.70444 7.70072 1.71077 7.65102 1.71077 7.59511C1.75508 6.17866 1.91965 4.63176 3.3945 4.11612C6.54674 3.32093 9.066 1.59386 9.17361 1.52552C9.55973 1.25839 9.65467 0.736542 9.38249 0.357582C9.11031 -0.0213785 8.57861 -0.114565 8.19249 0.152571C8.16717 0.171209 5.80615 1.78645 2.93875 2.50088C2.91343 2.5071 2.89444 2.51331 2.87545 2.51952C0.128319 3.44518 0.0460315 6.32155 0.0080527 7.54541C0.0080527 7.60132 0.00805255 7.65102 0.00172275 7.70072C0.00172275 7.70693 0.00172275 7.71314 0.00172275 7.71935C-0.00460706 8.0424 -0.0109367 9.70113 0.324543 10.5336C0.387841 10.6951 0.501777 10.8318 0.653693 10.925C0.843587 11.0492 5.39472 13.8945 13.0095 13.8945C20.6242 13.8945 25.1754 11.043 25.3652 10.925C25.5108 10.8318 25.6311 10.6951 25.6944 10.5336C26.0109 9.70734 26.0046 8.04862 25.9982 7.72557Z" transform="translate(0 16.1055)" fill="white"/>
</svg>
