<svg width="22" height="24" viewBox="0 0 22 24" fill="none" xmlns="http://www.w3.org/2000/svg">
    <path d="M2.5257 4.28065H17.4736H19.5C19.6567 4.43072 19.9989 4.54474 19.9989 4.99965C19.9989 5.45455 19.6567 5.56928 19.5 5.71935H17.4735H2.5257L5.71991 8.77166C6.01383 9.05251 6.01383 9.50848 5.71991 9.78933C5.42599 10.0702 4.94908 10.0702 4.65516 9.78933L0.21401 5.54494C0.0573038 5.39484 -0.00944148 5.19618 0.00106836 4.99965C-0.00944148 4.80383 0.0573038 4.60513 0.21401 4.45506L4.65441 0.210668C4.94834 -0.0702227 5.42524 -0.0702227 5.71916 0.210668C6.01308 0.491522 6.01308 0.947489 5.71916 1.22834L2.5257 4.28065Z" transform="scale(-1 1) rotate(90)" fill="#9398AA"/>
    <path d="M2.5257 4.28065H17.4736H19.5C19.6567 4.43072 19.9989 4.54474 19.9989 4.99965C19.9989 5.45455 19.6567 5.56928 19.5 5.71935H17.4735H2.5257L5.71991 8.77166C6.01383 9.05251 6.01383 9.50848 5.71991 9.78933C5.42599 10.0702 4.94908 10.0702 4.65516 9.78933L0.21401 5.54494C0.0573038 5.39484 -0.00944148 5.19618 0.00106836 4.99965C-0.00944148 4.80383 0.0573038 4.60513 0.21401 4.45506L4.65441 0.210668C4.94834 -0.0702227 5.42524 -0.0702227 5.71916 0.210668C6.01308 0.491522 6.01308 0.947489 5.71916 1.22834L2.5257 4.28065Z" transform="translate(12 23.999) rotate(-90)" fill="#9398AA"/>
</svg>
