<svg width="24" height="24" viewBox="0 0 24 24" fill="none" xmlns="http://www.w3.org/2000/svg">
    <path d="M19.6163 0H4.35898L0 7.5C0 7.5 0 10.0725 0 10.5C0 11.2995 0.28651 12.1718 0.750745 12.75L0.773255 21C0.773255 22.6567 2.15851 24 3.86702 24H20.1083C21.8167 24 23.25 22.6567 23.25 21V12.75C23.775 12.132 24 11.4975 24 10.5C24 9.67875 24 7.5 24 7.5L19.6163 0ZM21.75 21C21.75 21.828 20.9625 22.5 20.1083 22.5H3.86698C3.01275 22.5 2.25224 21.828 2.25224 21V19.5H21.75V21H21.75ZM21.75 18H2.25227L2.25 13.5C2.68349 13.5 3.32851 13.5 3.72302 13.5C4.52851 13.5 5.80577 12.7815 6.34577 11.682C6.95251 12.7507 8.08576 13.5 9.16726 13.5C10.3102 13.5 11.568 12.8197 11.988 11.838C12.408 12.7965 13.6395 13.5 14.7585 13.5C15.8685 13.5 17.0183 12.684 17.6003 11.5687C18.2805 12.6945 18.8303 13.5 20.25 13.5C20.4698 13.5 21.558 13.5352 21.75 13.5V18ZM22.5 10.5C22.4895 11.5358 21.2947 12.0008 20.25 12C19.044 11.9993 17.9587 11.2695 17.9587 10.5H17.25C17.25 11.2567 15.9067 12 14.7503 12C13.641 12 12.351 11.2335 12.351 10.5H11.6242C11.6242 11.2567 10.3117 12 9.20247 12C8.04596 12 6.726 11.4675 6.726 10.5H6.01651C6.01651 11.2545 4.85776 12.0233 3.74624 12.0233C2.61824 12.0233 1.5 11.5358 1.5 10.5V9H22.5V10.5ZM22.5465 7.5H1.53L5.02424 1.5H18.9532L22.5217 7.5H22.5465Z" fill="#9398AA"/>
</svg>
