<svg width="24" height="18" viewBox="0 0 24 18" fill="none" xmlns="http://www.w3.org/2000/svg">
    <path d="M1.71428 14.4C0.767138 14.4 0 15.2055 0 16.2C0 17.1945 0.767138 18 1.71428 18C2.66055 18 3.42855 17.1945 3.42855 16.2C3.42859 15.2064 2.66142 14.4 1.71428 14.4ZM7.71429 2.69999H23.1429C23.616 2.69999 24 2.29679 24 1.79999C24 1.3032 23.616 0.899996 23.1429 0.899996H7.71429C7.24115 0.899996 6.85715 1.3032 6.85715 1.79999C6.85715 2.29679 7.24115 2.69999 7.71429 2.69999ZM1.71428 7.20001C0.767138 7.20001 0 8.00641 0 9C0 9.9945 0.767138 10.8 1.71428 10.8C2.66055 10.8 3.42855 9.99359 3.42855 9C3.42859 8.00641 2.66142 7.20001 1.71428 7.20001ZM23.1429 8.10001H7.71429C7.24115 8.10001 6.85715 8.50321 6.85715 9C6.85715 9.4968 7.24115 9.9 7.71429 9.9H23.1429C23.616 9.9 24 9.4968 24 9C24 8.50321 23.616 8.10001 23.1429 8.10001ZM23.1429 15.3H7.71429C7.24115 15.3 6.85715 15.7032 6.85715 16.2C6.85715 16.6968 7.24115 17.1 7.71429 17.1H23.1429C23.616 17.1 24 16.6968 24 16.2C24 15.7032 23.616 15.3 23.1429 15.3ZM1.71428 0C0.767138 0 0 0.806402 0 1.79999C0 2.79358 0.767138 3.59998 1.71428 3.59998C2.66055 3.59998 3.42855 2.79358 3.42855 1.79999C3.42855 0.806402 2.66142 0 1.71428 0Z" fill="#AAB2D2"/>
</svg>
