<svg width="48" height="48" viewBox="0 0 48 48" fill="none" xmlns="http://www.w3.org/2000/svg">
    <path d="M15 26.4657L1.99966 20.4904C2.04466 20.5175 0.849363 19.9792 0 19.495C0 20.2175 0.181863 21.5419 0.857843 21.899L13.5853 27.6032C14.7103 28.1323 15.195 28.1323 16.4138 27.6032L29.1413 21.899C29.7703 21.6073 30 20.2343 30 19.495C29.1816 19.9034 28.0228 20.4857 28.0003 20.4904L15 26.4657ZM15 1.56903C15.0937 1.6784 15.0694 1.59146 15 1.56903V1.56903ZM0.857843 15.9236L13.5853 21.6279C14.7103 22.1569 15.195 22.1569 16.4138 21.6279L29.1413 15.9236C29.7703 15.632 30 14.259 30 13.5197C29.1816 13.9281 28.0228 14.5104 28.0003 14.5151L15 20.4904L1.99966 14.5151C2.04466 14.5422 0.849363 14.0038 0 13.5197C0 14.2422 0.181863 15.5666 0.857843 15.9236ZM0.857843 9.94833L13.5853 15.6526C14.7103 16.1816 15.195 16.1816 16.4138 15.6526L29.1413 9.94833C30.0788 9.51278 30.1097 7.66026 29.1413 7.13123L16.4138 0.431545C15.4144 -0.159164 14.7103 -0.128326 13.5853 0.431545L0.857843 7.13123C-0.110637 7.75371 -0.141569 9.41929 0.857843 9.94833ZM15 1.56903L28.0003 8.53975L15 14.002L1.99966 8.53975L15 1.56903Z" transform="translate(9 11)" fill="white"/>
</svg>
