<svg width="48" height="48" viewBox="0 0 48 48" fill="none" xmlns="http://www.w3.org/2000/svg">
    <path d="M19.5 0C19.3849 0 8.35713 0 8.35713 0C6.39226 0 4.64287 1.8197 4.64287 3.75002L3.56943 3.77533C1.6055 3.77533 0 5.56968 0 7.5V26.25C0 28.1803 1.74943 30 3.7143 30H17.6429C19.6077 30 21.3571 28.1803 21.3571 26.25H22.2857C24.2506 26.25 26 24.4304 26 22.5V7.52252L19.5 0ZM17.6429 28.1251H3.7143C2.7393 28.1251 1.85717 27.2054 1.85717 26.25V7.5C1.85717 6.5447 2.65111 5.65594 3.62611 5.65594L4.64287 5.62501V22.5C4.64287 24.4304 6.39226 26.25 8.35713 26.25H19.5C19.5 27.2054 18.6178 28.1251 17.6429 28.1251ZM24.1429 22.5C24.1429 23.4553 23.2607 24.375 22.2857 24.375H8.35713C7.38213 24.375 6.5 23.4553 6.5 22.5V3.75002C6.5 2.79473 7.38213 1.87503 8.35713 1.87503H17.6429C17.628 4.0341 17.6429 5.64847 17.6429 5.64847C17.6429 7.59659 19.3793 9.37503 21.3571 9.37503C21.3571 9.37503 22.3433 9.37503 24.1429 9.37503V22.5ZM21.3571 7.5C20.3682 7.5 19.5 5.68596 19.5 4.71282C19.5 4.71282 19.5 3.72656 19.5 1.90407V1.90218L24.1429 7.5H21.3571ZM19.5 13.1419H11.1429C10.6303 13.1419 10.2143 13.561 10.2143 14.0785C10.2143 14.596 10.6303 15.015 11.1429 15.015H19.5C20.0126 15.015 20.4286 14.5959 20.4286 14.0785C20.4286 13.561 20.0126 13.1419 19.5 13.1419ZM19.5 17.8247H11.1429C10.6303 17.8247 10.2143 18.2438 10.2143 18.7612C10.2143 19.2788 10.6303 19.6978 11.1429 19.6978H19.5C20.0126 19.6978 20.4286 19.2788 20.4286 18.7612C20.4286 18.2438 20.0126 17.8247 19.5 17.8247Z" transform="translate(11 9)" fill="white"/>
</svg>
