<svg width="30" height="30" viewBox="0 0 30 30" fill="none" xmlns="http://www.w3.org/2000/svg">
    <path d="M14.0625 26.25H15.9375V24.375H14.0625V26.25ZM15 3.75C14.4825 3.75 14.0625 4.17 14.0625 4.6875V14.085H6.5625C6.045 14.085 5.625 14.505 5.625 15.0225C5.625 15.54 6.045 15.96 6.5625 15.96H15C15.5175 15.96 15.9375 15.54 15.9375 15.0225V4.6875C15.9375 4.17 15.5175 3.75 15 3.75ZM6.31221 21.405L7.60971 22.7053L8.90721 21.405L7.60971 20.1047L6.31221 21.405ZM9.08716 7.80279L7.76059 6.47721L6.43495 7.80279L7.76059 9.12843L9.08716 7.80279ZM20.6962 7.75593L21.9938 9.05623L23.2913 7.75593L21.9938 6.45564L20.6962 7.75593ZM20.4216 21.3544L21.7472 22.68L23.0728 21.3544L21.7472 20.0288L20.4216 21.3544ZM24.375 14.0625V15.9375H26.25V14.0625H24.375ZM15 0C6.71529 0 0 6.71627 0 15C0 23.2847 6.71529 30 15 30C23.2847 30 30 23.2837 30 15C30 6.71627 23.2847 0 15 0ZM15 28.125C7.75123 28.125 1.875 22.2488 1.875 15C1.875 7.75123 7.75123 1.875 15 1.875C22.2488 1.875 28.125 7.75123 28.125 15C28.125 22.2488 22.2488 28.125 15 28.125Z" fill="white"/>
</svg>
