<svg width="48" height="58" viewBox="0 0 48 58" fill="none" xmlns="http://www.w3.org/2000/svg">
    <path fill-rule="evenodd" clip-rule="evenodd" d="M3.14375 8.18187C3.14375 8.62879 2.97814 9.0574 2.68336 9.37342C2.38857 9.68944 1.98876 9.86698 1.57188 9.86698C1.15499 9.86698 0.755177 9.68944 0.460393 9.37342C0.165609 9.0574 -1.17573e-07 8.62879 -1.17573e-07 8.18187V1.68511C-1.17573e-07 1.23819 0.165609 0.809577 0.460393 0.493558C0.755177 0.177538 1.15499 -8.823e-07 1.57188 -8.823e-07C1.98876 -8.823e-07 2.38857 0.177538 2.68336 0.493558C2.97814 0.809577 3.14375 1.23819 3.14375 1.68511V8.18187Z" transform="translate(44.8563 18.2677)" fill="#FFDD2A"/>
    <path fill-rule="evenodd" clip-rule="evenodd" d="M3.14375 18.8047C3.14375 19.2516 2.97814 19.6802 2.68336 19.9962C2.38857 20.3122 1.98876 20.4898 1.57188 20.4898C1.15499 20.4898 0.755175 20.3122 0.460391 19.9962C0.165608 19.6802 -1.41088e-06 19.2516 -1.41088e-06 18.8047V1.68511C-1.41088e-06 1.23819 0.165608 0.809578 0.460391 0.493558C0.755175 0.177539 1.15499 -2.52086e-07 1.57188 -2.52086e-07C1.98876 -2.52086e-07 2.38857 0.177539 2.68336 0.493558C2.97814 0.809578 3.14375 1.23819 3.14375 1.68511V18.8047Z" transform="translate(39.2776 15.4386)" fill="#FFDD2A"/>
    <path fill-rule="evenodd" clip-rule="evenodd" d="M3.14375 44.5976C3.14375 44.8189 3.10309 45.038 3.0241 45.2425C2.94511 45.4469 2.82932 45.6327 2.68336 45.7892C2.5374 45.9456 2.36412 46.0698 2.17341 46.1544C1.9827 46.2391 1.7783 46.2827 1.57188 46.2827C1.36546 46.2827 1.16105 46.2391 0.970343 46.1544C0.779635 46.0698 0.606353 45.9456 0.460391 45.7892C0.314428 45.6327 0.198646 45.4469 0.119652 45.2425C0.0406577 45.038 5.75562e-07 44.8189 5.87866e-07 44.5976V1.68511C5.75562e-07 1.46382 0.0406577 1.24469 0.119652 1.04025C0.198646 0.835799 0.314428 0.650034 0.460391 0.493557C0.606353 0.33708 0.779635 0.212956 0.970343 0.128271C1.16105 0.0435861 1.36546 1.63462e-07 1.57188 1.63462e-07C1.7783 1.63462e-07 1.9827 0.0435861 2.17341 0.128271C2.36412 0.212956 2.5374 0.33708 2.68336 0.493557C2.82932 0.650034 2.94511 0.835799 3.0241 1.04025C3.10309 1.24469 3.14375 1.46382 3.14375 1.68511V44.5976Z" transform="translate(33.7145 6.84781)" fill="#FFDD2A"/>
    <path fill-rule="evenodd" clip-rule="evenodd" d="M3.14375 25.1817C3.14375 25.4029 3.10309 25.6221 3.0241 25.8265C2.9451 26.031 2.82932 26.2167 2.68336 26.3732C2.5374 26.5297 2.36411 26.6538 2.1734 26.7385C1.9827 26.8232 1.77829 26.8668 1.57187 26.8668C1.36545 26.8668 1.16105 26.8232 0.970342 26.7385C0.779634 26.6538 0.606352 26.5297 0.46039 26.3732C0.314428 26.2167 0.198646 26.031 0.119652 25.8265C0.040658 25.6221 9.2828e-07 25.4029 9.40584e-07 25.1817V1.68511C9.65432e-07 1.23819 0.165607 0.809577 0.46039 0.493558C0.755174 0.177538 1.15499 -8.56697e-07 1.57187 -8.56697e-07C1.98876 -8.56697e-07 2.38857 0.177538 2.68336 0.493558C2.97814 0.809577 3.14375 1.23819 3.14375 1.68511V25.1817Z" transform="translate(28.1436 20.0974)" fill="#FFDD2A"/>
    <path fill-rule="evenodd" clip-rule="evenodd" d="M3.14375 16.0746C3.14375 16.5215 2.97814 16.9502 2.68336 17.2662C2.38857 17.5822 1.98876 17.7597 1.57187 17.7597C1.15499 17.7597 0.755175 17.5822 0.460391 17.2662C0.165607 16.9502 1.2933e-06 16.5215 1.2933e-06 16.0746V1.68511C1.2933e-06 1.23819 0.165607 0.809576 0.460391 0.493557C0.755175 0.177537 1.15499 1.38647e-06 1.57187 1.38647e-06C1.98876 1.38647e-06 2.38857 0.177537 2.68336 0.493557C2.97814 0.809576 3.14375 1.23819 3.14375 1.68511V16.0746Z" transform="translate(22.5725 34.268)" fill="#FFDD2A"/>
    <path fill-rule="evenodd" clip-rule="evenodd" d="M3.14375 10.9119C3.14375 11.3588 2.97814 11.7874 2.68336 12.1035C2.38857 12.4195 1.98876 12.597 1.57187 12.597C1.15499 12.597 0.755175 12.4195 0.460392 12.1035C0.165608 11.7874 -6.46651e-07 11.3588 -6.46651e-07 10.9119V1.68511C-6.46651e-07 1.23819 0.165608 0.809579 0.460392 0.493559C0.755175 0.17754 1.15499 1.00834e-06 1.57187 1.00834e-06C1.98876 1.00834e-06 2.38857 0.17754 2.68336 0.493559C2.97814 0.809579 3.14375 1.23819 3.14375 1.68511V10.9119Z" transform="translate(16.9979 45.403)" fill="#FFDD2A"/>
    <path fill-rule="evenodd" clip-rule="evenodd" d="M-5.14383e-08 1.68511C-5.14383e-08 1.23819 0.165608 0.809578 0.460392 0.493558C0.755176 0.177539 1.15499 -1.26043e-07 1.57188 -1.26043e-07C1.98876 -1.26043e-07 2.38858 0.177539 2.68336 0.493558C2.97815 0.809578 3.14375 1.23819 3.14375 1.68511V8.18187C3.14375 8.62879 2.97815 9.0574 2.68336 9.37342C2.38858 9.68944 1.98876 9.86698 1.57188 9.86698C1.15499 9.86698 0.755176 9.68944 0.460392 9.37342C0.165608 9.0574 -5.14383e-08 8.62879 -5.14383e-08 8.18187V1.68511Z" transform="translate(0 29.8653)" fill="#FFDD2A"/>
    <path fill-rule="evenodd" clip-rule="evenodd" d="M1.46966e-07 1.68511C1.46966e-07 1.23819 0.165608 0.809577 0.460392 0.493557C0.755175 0.177538 1.15499 -1.26043e-06 1.57188 -1.26043e-06C1.98876 -1.26043e-06 2.38858 0.177538 2.68336 0.493557C2.97814 0.809577 3.14375 1.23819 3.14375 1.68511V18.8047C3.14375 19.2516 2.97814 19.6802 2.68336 19.9962C2.38858 20.3122 1.98876 20.4898 1.57188 20.4898C1.15499 20.4898 0.755175 20.3122 0.460392 19.9962C0.165608 19.6802 1.46966e-07 19.2516 1.46966e-07 18.8047V1.68511Z" transform="translate(5.57092 22.0716)" fill="#FFDD2A"/>
    <path fill-rule="evenodd" clip-rule="evenodd" d="M-1.17573e-07 1.68511C-1.17573e-07 1.23819 0.165607 0.809576 0.460391 0.493557C0.755175 0.177537 1.15499 -3.15107e-07 1.57188 -3.15107e-07C1.98876 -3.15107e-07 2.38858 0.177537 2.68336 0.493557C2.97814 0.809576 3.14375 1.23819 3.14375 1.68511V44.5852C3.14375 45.0321 2.97814 45.4607 2.68336 45.7768C2.38858 46.0928 1.98876 46.2703 1.57188 46.2703C1.15499 46.2703 0.755175 46.0928 0.460391 45.7768C0.165607 45.4607 -1.17573e-07 45.0321 -1.17573e-07 44.5852V1.68511Z" transform="translate(11.1457 4.86951)" fill="#FFDD2A"/>
    <path fill-rule="evenodd" clip-rule="evenodd" d="M-4.70293e-07 1.68511C-4.70293e-07 1.23819 0.165609 0.809576 0.460392 0.493557C0.755176 0.177537 1.15499 1.38647e-06 1.57188 1.38647e-06C1.98876 1.38647e-06 2.38858 0.177537 2.68336 0.493557C2.97814 0.809576 3.14375 1.23819 3.14375 1.68511V25.1775C3.14375 25.6245 2.97814 26.0531 2.68336 26.3691C2.38858 26.6851 1.98876 26.8626 1.57188 26.8626C1.15499 26.8626 0.755176 26.6851 0.460392 26.3691C0.165609 26.0531 -4.70293e-07 25.6245 -4.70293e-07 25.1775V1.68511Z" transform="translate(16.7166 11.0358)" fill="#FFDD2A"/>
    <path fill-rule="evenodd" clip-rule="evenodd" d="M6.46652e-07 1.68511C6.37952e-07 1.46382 0.0406592 1.24469 0.119653 1.04025C0.198648 0.835799 0.31443 0.650035 0.460392 0.493558C0.606354 0.337081 0.779636 0.212956 0.970345 0.128271C1.16105 0.0435865 1.36545 5.75193e-07 1.57188 5.75193e-07C1.7783 5.75193e-07 1.9827 0.0435865 2.17341 0.128271C2.36412 0.212956 2.5374 0.337081 2.68336 0.493558C2.82932 0.650035 2.94511 0.835799 3.0241 1.04025C3.1031 1.24469 3.14375 1.46382 3.14375 1.68511V16.0705C3.14375 16.5174 2.97814 16.946 2.68336 17.2621C2.38858 17.5781 1.98876 17.7556 1.57188 17.7556C1.15499 17.7556 0.755176 17.5781 0.460392 17.2621C0.165608 16.946 6.46652e-07 16.5174 6.46652e-07 16.0705V1.68511Z" transform="translate(22.2875 5.97223)" fill="#FFDD2A"/>
    <path fill-rule="evenodd" clip-rule="evenodd" d="M-1.17573e-06 1.68511C-1.15088e-06 1.23819 0.165608 0.809577 0.460392 0.493558C0.755176 0.177538 1.15499 7.81859e-07 1.57188 7.81859e-07C1.98876 7.81859e-07 2.38858 0.177538 2.68336 0.493558C2.97814 0.809577 3.14375 1.23819 3.14375 1.68511V10.9119C3.14375 11.1332 3.10309 11.3523 3.0241 11.5568C2.94511 11.7612 2.82932 11.947 2.68336 12.1035C2.5374 12.2599 2.36411 12.3841 2.17341 12.4688C1.9827 12.5534 1.7783 12.597 1.57188 12.597C1.36545 12.597 1.16105 12.5534 0.970345 12.4688C0.779636 12.3841 0.606354 12.2599 0.460392 12.1035C0.31443 11.947 0.198647 11.7612 0.119653 11.5568C0.0406589 11.3523 -1.18804e-06 11.1332 -1.17573e-06 10.9119V1.68511Z" transform="translate(27.8584)" fill="#FFDD2A"/>
</svg>