<svg width="87" height="94" viewBox="0 0 87 94" fill="none" xmlns="http://www.w3.org/2000/svg">
    <path fill-rule="evenodd" clip-rule="evenodd" d="M5.7047 13.247C5.7047 14.7858 4.45245 15.99 2.85235 15.99C1.25225 15.99 1.06155e-06 14.7858 1.06155e-06 13.247V2.74306C1.06155e-06 1.20427 1.25225 5.10436e-07 2.85235 5.10436e-07C4.45245 5.10436e-07 5.7047 1.20427 5.7047 2.74306V13.247Z" transform="translate(80.9789 29.5715)" fill="white"/>
    <path fill-rule="evenodd" clip-rule="evenodd" d="M5.7047 30.4413C5.7047 31.9801 4.45245 33.1843 2.85235 33.1843C1.25225 33.1843 1.06155e-06 31.9801 1.06155e-06 30.4413V2.74306C1.06155e-06 1.20427 1.25225 1.02087e-06 2.85235 1.02087e-06C4.45245 1.02087e-06 5.7047 1.20427 5.7047 2.74306V30.4413Z" transform="translate(70.8912 25.022)" fill="white"/>
    <path fill-rule="evenodd" clip-rule="evenodd" d="M5.7047 72.2562C5.7047 73.795 4.45245 74.9993 2.85235 74.9993C1.25225 74.9993 0 73.795 0 72.2562V2.74306C0 1.20427 1.25225 2.55218e-07 2.85235 2.55218e-07C4.45245 2.55218e-07 5.7047 1.20427 5.7047 2.74306V72.2562Z" transform="translate(60.8734 11.106)" fill="white"/>
    <path fill-rule="evenodd" clip-rule="evenodd" d="M5.7047 40.7445C5.7047 42.2833 4.45245 43.4875 2.85235 43.4875C1.25225 43.4875 0 42.2833 0 40.7445V2.74306C0 1.20427 1.25225 5.10436e-07 2.85235 5.10436e-07C4.45245 5.10436e-07 5.7047 1.20427 5.7047 2.74306V40.7445Z" transform="translate(50.7857 32.5822)" fill="white"/>
    <path fill-rule="evenodd" clip-rule="evenodd" d="M5.7047 26.0256C5.7047 27.5644 4.45245 28.7687 2.85235 28.7687C1.25225 28.7687 0 27.5644 0 26.0256V2.74306C0 1.20427 1.25225 0 2.85235 0C4.45245 0 5.7047 1.20427 5.7047 2.74306V26.0256Z" transform="translate(40.6981 55.5302)" fill="white"/>
    <path fill-rule="evenodd" clip-rule="evenodd" d="M5.7047 17.7295C5.7047 19.2683 4.45245 20.4726 2.85235 20.4726C1.25225 20.4726 -1.06155e-06 19.2683 -1.06155e-06 17.7295V2.74306C-1.06155e-06 1.20427 1.25225 1.02087e-06 2.85235 1.02087e-06C4.45245 1.02087e-06 5.7047 1.20427 5.7047 2.74306V17.7295Z" transform="translate(30.6803 73.5274)" fill="white"/>
    <path fill-rule="evenodd" clip-rule="evenodd" d="M0 2.74306C0 1.20427 1.25225 2.04174e-06 2.85235 2.04174e-06C4.45245 2.04174e-06 5.7047 1.20427 5.7047 2.74306V13.247C5.7047 14.7858 4.45245 15.99 2.85235 15.99C1.25225 15.99 0 14.7858 0 13.247V2.74306Z" transform="translate(0 48.3715)" fill="white"/>
    <path fill-rule="evenodd" clip-rule="evenodd" d="M0 2.74306C0 1.20427 1.25225 1.02087e-06 2.85235 1.02087e-06C4.45245 1.02087e-06 5.7047 1.20427 5.7047 2.74306V30.5082C5.7047 32.047 4.45245 33.2512 2.85235 33.2512C1.25225 33.2512 0 32.047 0 30.5082V2.74306V2.74306Z" transform="translate(10.0875 35.7267)" fill="white"/>
    <path fill-rule="evenodd" clip-rule="evenodd" d="M-2.65387e-07 2.74306C-2.65387e-07 1.20427 1.25225 1.27609e-07 2.85235 1.27609e-07C4.45245 1.27609e-07 5.7047 1.20427 5.7047 2.74306V72.2562C5.7047 73.795 4.45245 74.9993 2.85235 74.9993C1.25225 74.9993 -2.65387e-07 73.795 -2.65387e-07 72.2562V2.74306Z" transform="translate(20.1056 7.89471)" fill="white"/>
    <path fill-rule="evenodd" clip-rule="evenodd" d="M1.06155e-06 2.74306C1.06155e-06 1.20427 1.25225 5.10436e-07 2.85235 5.10436e-07C4.45245 5.10436e-07 5.7047 1.20427 5.7047 2.74306V40.8114C5.7047 42.3502 4.45245 43.5544 2.85235 43.5544C1.25225 43.5544 1.06155e-06 42.3502 1.06155e-06 40.8114V2.74306Z" transform="translate(30.1931 17.8633)" fill="white"/>
    <path fill-rule="evenodd" clip-rule="evenodd" d="M-5.30773e-07 2.74306C-5.30773e-07 1.20427 1.25225 -2.55218e-07 2.85235 -2.55218e-07C4.45245 -2.55218e-07 5.7047 1.20427 5.7047 2.74306V26.0256C5.7047 27.5644 4.45245 28.7687 2.85235 28.7687C1.25225 28.7687 -5.30773e-07 27.5644 -5.30773e-07 26.0256V2.74306Z" transform="translate(40.2112 9.63416)" fill="white"/>
    <path fill-rule="evenodd" clip-rule="evenodd" d="M2.12309e-06 2.74306C2.12309e-06 1.20427 1.25225 0 2.85235 0C4.45245 0 5.7047 1.20427 5.7047 2.74306V17.6626C5.7047 19.2014 4.45245 20.4057 2.85235 20.4057C1.25225 20.4057 2.12309e-06 19.2014 2.12309e-06 17.6626V2.74306Z" transform="translate(50.2988)" fill="white"/>
</svg>
