<svg width="28" height="22" viewBox="0 0 28 22" fill="none" xmlns="http://www.w3.org/2000/svg">
    <path fill-rule="evenodd" clip-rule="evenodd" d="M20 1.5H2C1.72388 1.5 1.5 1.72386 1.5 2V12C1.5 12.2761 1.72388 12.5 2 12.5H20C20.2761 12.5 20.5 12.2761 20.5 12V2C20.5 1.72386 20.2761 1.5 20 1.5ZM2 0C0.895447 0 0 0.895432 0 2V12C0 13.1046 0.895447 14 2 14H20C21.1046 14 22 13.1046 22 12V2C22 0.895432 21.1046 0 20 0H2ZM3 9.75C3 9.33579 3.33582 9 3.75 9H6.25C6.66418 9 7 9.33579 7 9.75C7 10.1642 6.66418 10.5 6.25 10.5H3.75C3.33582 10.5 3 10.1642 3 9.75ZM3.75 6C3.33582 6 3 6.33578 3 6.75C3 7.16422 3.33582 7.5 3.75 7.5H9.25C9.66418 7.5 10 7.16422 10 6.75C10 6.33578 9.66418 6 9.25 6H3.75Z" transform="translate(6 8)" fill="#9398AA"/>
    <path fill-rule="evenodd" clip-rule="evenodd" d="M20 1.5H2C1.72388 1.5 1.5 1.72386 1.5 2V4H20.5V2C20.5 1.72386 20.2761 1.5 20 1.5ZM1.5 12V5.5H20.5V6H22V2C22 0.895432 21.1046 0 20 0H2C0.895447 0 0 0.895432 0 2V12C0 13.1046 0.895447 14 2 14H4V12.5H2C1.72388 12.5 1.5 12.2761 1.5 12Z" fill="#9398AA"/>
</svg>
