<svg width="48" height="48" viewBox="0 0 48 48" fill="none" xmlns="http://www.w3.org/2000/svg">
    <path d="M26.25 0L18.375 5.2H7C3.13426 5.2 0 7.43774 0 11.2667C0 14.5019 2.22426 16.7604 5.25 17.3333C5.28939 17.5673 5.25 24.2667 5.25 24.2667C5.25 25.2243 6.03313 26 7 26H9.625C10.5919 26 11.375 25.2235 11.375 24.2667V17.3333H18.375L26.25 22.5333C27.2169 22.5333 28 21.7577 28 20.8V1.73333C28 0.776533 27.2169 0 26.25 0ZM9.625 23.4C9.625 23.8784 9.233 24.2667 8.75 24.2667H7.875C7.392 24.2667 7 23.8784 7 23.4V17.3333C7 17.3333 9.18748 17.3333 9.625 17.3333V23.4ZM14 15.6H7C5.26048 15.6 1.75 15.0956 1.75 11.2667C1.75 7.43774 5.20274 6.87614 7 6.93333H14V15.6ZM18.375 15.6H15.75V6.93333H18.375C18.375 6.93333 18.375 14.6571 18.375 15.6ZM26.25 20.8L20.125 16.4667V6.06667L26.25 1.73333V20.8Z" transform="translate(10 11)" fill="white"/>
</svg>
