<svg width="32" height="32" viewBox="0 0 32 32" fill="none" xmlns="http://www.w3.org/2000/svg">
    <path d="M17.1429 13.2V7.33334C17.1429 3.28312 13.945 0 10 0C6.055 0 2.85716 3.28312 2.85716 7.33334V13.2L0 19.0667H6.50072C6.83144 20.7401 8.27216 22 10 22C11.7278 22 13.1686 20.7401 13.4993 19.0667H20L17.1429 13.2ZM10 20.5333C9.06856 20.5333 8.2836 19.9195 7.98856 19.0667H12.0121C11.7164 19.9195 10.9314 20.5333 10 20.5333ZM2.14288 17.6L4.28572 13.2V7.33334C4.28572 4.09348 6.84428 1.46669 10 1.46669C13.1557 1.46669 15.7143 4.09348 15.7143 7.33334V13.2L17.8571 17.6H2.14288V17.6Z" transform="translate(6 5)" fill="#353C52"/>
    <circle cx="2" cy="2" r="2" transform="translate(22)" fill="#FF3838"/>
</svg>
