<svg width="26" height="28" viewBox="0 0 26 28" fill="none" xmlns="http://www.w3.org/2000/svg">
    <path d="M24.2667 7.09402V0.996455C24.2667 0.51561 24.0622 0.247325 23.6167 0.0713585C23.2734 -0.0645557 22.9398 0.0164462 22.5333 0.125374L0 7.09402V26.2578C0 27.2194 0.775667 28 1.73333 28H24.2667C25.2243 28 26 27.2195 26 26.2578V8.83618C26 7.87453 25.2243 7.09402 24.2667 7.09402ZM22.5334 1.86754V7.09402H5.63338L22.5334 1.86754ZM24.2667 18.4181C24.2667 18.8989 24.2667 18.6899 24.2667 19.2892H20.8C20.8 18.7256 20.8 18.8989 20.8 18.4181V17.547H24.2667C24.2667 18.2003 24.2667 17.9372 24.2667 18.4181ZM24.2667 15.8048H19.9333C19.4549 15.8048 19.0667 16.1951 19.0667 16.6759V20.1602C19.0667 20.6411 19.455 21.0313 19.9333 21.0313H24.2667V25.3867C24.2667 25.8676 23.8784 26.2578 23.4 26.2578H2.6C2.12159 26.2578 1.73333 25.8676 1.73333 25.3867C1.73333 25.3867 1.73333 9.43552 1.73333 8.83618H23.4C23.8784 8.83618 24.2667 9.22556 24.2667 9.70726V15.8048Z" fill="white"/>
</svg>
