<svg width="32" height="32" viewBox="0 0 32 32" fill="none" xmlns="http://www.w3.org/2000/svg">
    <path d="M24.7212 3.13818V0H0V14.8618H3.27884V18H28V3.13818H24.7212ZM23.0818 1.56901V3.5608C22.591 3.42879 22.1409 3.1787 21.7704 2.82418C21.4 2.46962 21.1387 2.03884 21.0008 1.56901H23.0818ZM1.63931 1.56901H3.80942C3.6715 2.03884 3.4102 2.46962 3.0398 2.82418C2.64562 3.20141 2.16437 3.46056 1.63931 3.58482V1.56901ZM1.63931 13.2928V11.2772C2.16431 11.4014 2.64562 11.6603 3.03975 12.0375C3.4102 12.3921 3.6715 12.8229 3.80942 13.2928H1.63931ZM1.63931 9.67893V5.18367C2.60384 5.03968 3.49223 4.61005 4.19896 3.93358C4.88135 3.28045 5.32443 2.45993 5.48893 1.56896H19.3213C19.4859 2.45988 19.9289 3.28045 20.6113 3.93358C21.2937 4.5867 22.151 5.01078 23.0818 5.16823V9.69343C22.151 9.85098 21.2936 10.275 20.6112 10.928C19.9289 11.5812 19.4859 12.4018 19.3213 13.2927H5.48898C5.32438 12.4018 4.88141 11.5812 4.19902 10.928C3.49223 10.2517 2.60389 9.82308 1.63931 9.67893ZM23.0818 11.3009V13.2928H21.0008C21.1387 12.8229 21.4 12.3921 21.7704 12.0375C22.1409 11.683 22.591 11.4329 23.0818 11.3009ZM26.3607 16.431H4.91816V14.8618H24.7212V4.7072H26.3607V16.431Z" transform="translate(2 7)" fill="#AAB2D2"/>
    <path d="M9.21246 3.5582C8.96221 2.39301 8.25275 1.39081 7.21489 0.736218C6.17709 0.081677 4.93497 -0.146955 3.71762 0.092721C2.50023 0.332239 1.45312 1.01128 0.769202 2.00458C0.0853351 2.99793 -0.153485 4.18668 0.0968196 5.35187C0.34707 6.51706 1.05653 7.51926 2.09439 8.17385C2.86357 8.65896 3.7448 8.91005 4.64518 8.91005C4.95963 8.91005 5.2766 8.87937 5.59166 8.8174C6.80905 8.57788 7.85616 7.89885 8.54008 6.90549C9.22394 5.91219 9.46276 4.72339 9.21246 3.5582ZM7.17119 6.04221C6.25682 7.37024 4.38405 7.73883 2.99635 6.86362C2.32419 6.4397 1.86476 5.79055 1.70261 5.03588C1.54046 4.28121 1.69512 3.51125 2.13814 2.86786C2.58105 2.22452 3.25934 1.78474 4.04777 1.62954C4.25192 1.5894 4.45711 1.56956 4.66087 1.56956C5.24395 1.56956 5.81478 1.73219 6.31298 2.0464C7.70052 2.92156 8.08557 4.71413 7.17119 6.04221Z" transform="translate(9.70593 9.9758)" fill="#AAB2D2"/>
</svg>
