<svg width="30" height="30" viewBox="0 0 30 30" fill="none" xmlns="http://www.w3.org/2000/svg">
    <path d="M28.4644 11.8508L26.3587 11.4936C26.1394 10.7855 25.8574 10.1024 25.5127 9.45059L26.7535 7.71464C27.28 6.97514 27.1985 5.96616 26.553 5.32693L24.6855 3.45937C24.3345 3.10842 23.8708 2.91414 23.3757 2.91414C22.9871 2.91414 22.6174 3.03322 22.304 3.25883L20.5618 4.49969C19.885 4.14247 19.1768 3.84792 18.4436 3.62858L18.0926 1.54794C17.9422 0.651765 17.1714 0 16.2627 0H13.6243C12.7156 0 11.9448 0.651765 11.7944 1.54794L11.4309 3.67871C10.729 3.89806 10.0459 4.18634 9.39414 4.53729L7.67073 3.29643C7.35738 3.07082 6.98137 2.95174 6.59282 2.95174C6.09773 2.95174 5.62771 3.14602 5.28303 3.49697L3.40921 5.36453C2.76999 6.00376 2.68225 7.01274 3.20867 7.75225L4.46206 9.51326C4.11738 10.1713 3.84163 10.8544 3.62856 11.5626L1.54793 11.9135C0.651761 12.0639 0 12.8348 0 13.7435V16.3819C0 17.2906 0.651761 18.0614 1.54793 18.2118L3.67869 18.5753C3.89803 19.2772 4.18631 19.9603 4.53726 20.6121L3.30268 22.3292C2.77625 23.0687 2.85772 24.0777 3.50322 24.7169L5.37076 26.5845C5.72171 26.9354 6.18547 27.1297 6.68055 27.1297C7.0691 27.1297 7.43885 27.0107 7.7522 26.785L9.51321 25.5316C10.1462 25.8638 10.8105 26.1333 11.4936 26.3464L11.8445 28.4521C11.9949 29.3482 12.7657 30 13.6745 30H16.3191C17.2278 30 17.9986 29.3482 18.149 28.4521L18.5063 26.3464C19.2144 26.127 19.8975 25.845 20.5493 25.5003L22.2852 26.7412C22.5986 26.9668 22.9746 27.0859 23.3631 27.0859C23.8582 27.0859 24.322 26.8916 24.6729 26.5406L26.5405 24.6731C27.1797 24.0338 27.2674 23.0249 26.741 22.2854L25.5002 20.5431C25.8448 19.8851 26.1331 19.202 26.3462 18.5001L28.4519 18.1492C29.3481 17.9987 29.9998 17.2279 29.9998 16.3192V13.6808C30.0124 12.7721 29.3606 12.0013 28.4644 11.8508ZM28.3203 16.3192C28.3203 16.4007 28.2639 16.4696 28.1824 16.4821L25.5503 16.9208C25.2182 16.9772 24.9549 17.2216 24.8735 17.5413C24.6353 18.4625 24.2718 19.3461 23.783 20.1671C23.6138 20.4554 23.6263 20.8126 23.8206 21.0884L25.3686 23.2693C25.4124 23.3319 25.4062 23.4259 25.3498 23.4823L23.4822 25.3499C23.4383 25.3938 23.3945 25.4 23.3631 25.4C23.3255 25.4 23.2942 25.3875 23.2691 25.3687L21.0945 23.8208C20.825 23.6265 20.4615 23.614 20.1733 23.7832C19.3523 24.272 18.4687 24.6355 17.5474 24.8736C17.2215 24.9551 16.9771 25.2246 16.927 25.5504L16.482 28.1826C16.4695 28.264 16.4006 28.3205 16.3191 28.3205H13.6807C13.5993 28.3205 13.5303 28.264 13.5178 28.1826L13.0791 25.5504C13.0227 25.2183 12.7783 24.9551 12.4587 24.8736C11.5625 24.6417 10.6977 24.2845 9.88923 23.8208C9.75762 23.7456 9.60721 23.708 9.46307 23.708C9.29387 23.708 9.11839 23.7581 8.97425 23.8646L6.78082 25.4251C6.74949 25.4439 6.71815 25.4564 6.68682 25.4564C6.66175 25.4564 6.61162 25.4502 6.56775 25.4063L4.7002 23.5388C4.6438 23.4823 4.63753 23.3946 4.6814 23.3257L6.22307 21.1636C6.41734 20.8878 6.42988 20.5243 6.26067 20.2361C5.77185 19.4213 5.39583 18.5377 5.15769 17.6165C5.06995 17.2968 4.80674 17.0524 4.48086 16.996L1.82995 16.5448C1.74848 16.5323 1.69207 16.4633 1.69207 16.3819V13.7435C1.69207 13.662 1.74848 13.5931 1.82995 13.5805L4.44326 13.1418C4.77541 13.0854 5.04488 12.841 5.12635 12.5151C5.35823 11.5939 5.71545 10.704 6.198 9.88302C6.36721 9.59474 6.34841 9.23752 6.15413 8.96804L4.59366 6.7746C4.5498 6.71193 4.55606 6.61792 4.61246 6.56152L6.48001 4.69396C6.52388 4.65009 6.56775 4.64383 6.59908 4.64383C6.63669 4.64383 6.66802 4.65636 6.69309 4.67516L8.85518 6.21684C9.13093 6.41111 9.49441 6.42365 9.78269 6.25444C10.5974 5.76562 11.481 5.3896 12.4023 5.15145C12.7219 5.06371 12.9663 4.8005 13.0227 4.47462L13.4739 1.82369C13.4864 1.74222 13.5554 1.68582 13.6369 1.68582H16.2752C16.3567 1.68582 16.4256 1.74222 16.4382 1.82369L16.8769 4.43702C16.9333 4.76917 17.1777 5.03865 17.5036 5.12012C18.4499 5.35826 19.3523 5.72801 20.1921 6.2231C20.4803 6.39231 20.8376 6.37978 21.1133 6.1855L23.2754 4.63129C23.3067 4.61249 23.3381 4.59996 23.3694 4.59996C23.3945 4.59996 23.4446 4.60623 23.4885 4.65009L25.356 6.51765C25.4124 6.57405 25.4187 6.66179 25.3748 6.73073L23.8269 8.90537C23.6326 9.17485 23.6201 9.53833 23.7893 9.82661C24.2781 10.6476 24.6416 11.5312 24.8797 12.4525C24.9612 12.7784 25.2307 13.0228 25.5566 13.0729L28.1887 13.5179C28.2701 13.5304 28.3265 13.5993 28.3265 13.6808V16.3192H28.3203Z" fill="white"/>
    <path d="M6.47374 0C2.90159 0 0 2.90161 0 6.47378C0 10.046 2.90159 12.9476 6.47374 12.9476C10.0459 12.9476 12.9475 10.046 12.9475 6.47378C12.9475 2.90161 10.0459 0 6.47374 0ZM6.47374 11.2555C3.83536 11.2555 1.69207 9.11218 1.69207 6.47378C1.69207 3.83539 3.83536 1.69208 6.47374 1.69208C9.11212 1.69208 11.2554 3.83539 11.2554 6.47378C11.2554 9.11218 9.11212 11.2555 6.47374 11.2555Z" transform="translate(8.5293 8.52304)" fill="white"/>
</svg>
