<svg width="31" height="32" viewBox="0 0 31 32" fill="none" xmlns="http://www.w3.org/2000/svg">
    <path d="M12.5 13C13.328 13 14 12.329 14 11.5C14 10.672 13.328 10 12.5 10C11.672 10 11 10.672 11 11.5C11 12.329 11.672 13 12.5 13ZM18.5 13C19.328 13 20 12.329 20 11.5C20 10.672 19.328 10 18.5 10C17.672 10 17.0001 10.672 17.0001 11.5C17 12.329 17.672 13 18.5 13ZM9.63599 22.7369C10.414 22.863 12.181 22.9999 13 22.9999C20.18 22.9999 25 17.657 25 11.375C25 5.09296 18.977 0 13 0C5.81002 0 0 5.09301 0 11.375C0 15.014 1.387 18.104 4.00001 20.329V25.9999L9.63599 22.7369ZM2.00001 11.5C2.00001 6.25297 6.75298 2 13 2C17.973 2 23 6.25297 23 11.5C23 16.747 19.075 21 13 21C12.107 21 10.244 20.898 9.41301 20.7249L6.00002 22.9999V19.456C3.561 17.477 2.00001 14.833 2.00001 11.5ZM26.949 9.13799C26.968 9.425 27 9.70901 27 10C27 10.636 26.939 11.259 26.849 11.874C28.195 13.45 29 15.391 29 17.5C29 20.833 27.008 23.761 24 25.456V29L20.587 26.725C19.756 26.898 18.893 27 18 27C15.41 27 14.034 26.222 12.154 24.928C11.609 24.972 11.058 25 10.5 25C10.102 25 9.71202 24.971 9.32001 24.949C11.7 27.277 14.149 28.75 18 28.75C18.819 28.75 19.618 28.676 20.395 28.549L26 32V26.328C29.039 24.246 31 21.014 31 17.374C31 14.13 29.44 11.211 26.949 9.13799ZM6.50002 13C7.328 13 8.00003 12.329 8.00003 11.5C8.00003 10.672 7.328 10 6.50002 10C5.67199 10 5.00002 10.672 5.00002 11.5C5.00002 12.329 5.67199 13 6.50002 13Z" fill="white"/>
</svg>
