<svg width="99" height="33" viewBox="0 0 99 33" fill="none" xmlns="http://www.w3.org/2000/svg">
    <path d="M19.9382 19.9114C20.6862 19.9114 21.3048 20.1704 21.7939 20.6882C22.283 21.1773 22.5275 21.7959 22.5275 22.544V33.5056C22.5275 36.6129 21.6644 39.044 19.9382 40.799C18.2407 42.5541 15.8096 43.4316 12.6448 43.4316C9.47998 43.4316 7.04885 42.5541 5.35137 40.799C3.65389 39.044 2.80515 36.6129 2.80515 33.5056V22.544C2.80515 21.7959 3.04971 21.1773 3.53881 20.6882C4.02791 20.1704 4.64648 19.9114 5.39453 19.9114C6.14257 19.9114 6.76114 20.1704 7.25024 20.6882C7.73935 21.1773 7.9839 21.7959 7.9839 22.544V33.5056C7.9839 35.2607 8.3723 36.5697 9.14912 37.4328C9.92593 38.2672 11.0911 38.6844 12.6448 38.6844C14.2272 38.6844 15.4068 38.2672 16.1836 37.4328C16.9604 36.5697 17.3488 35.2607 17.3488 33.5056V22.544C17.3488 21.7959 17.5933 21.1773 18.0825 20.6882C18.5716 20.1704 19.1901 19.9114 19.9382 19.9114ZM40.0884 19.4799C42.0736 19.4799 43.8718 19.9977 45.4829 21.0335C47.0941 22.0405 48.36 23.4502 49.2807 25.2628C50.2301 27.0754 50.7048 29.1325 50.7048 31.4341C50.7048 33.7358 50.2445 35.8073 49.3238 37.6486C48.4032 39.4612 47.1373 40.8853 45.5261 41.9211C43.9437 42.9281 42.1887 43.4316 40.261 43.4316C38.88 43.4316 37.571 43.1582 36.3338 42.6116C35.1254 42.0362 34.1185 41.3457 33.3129 40.5401V48.9987C33.3129 49.7468 33.0683 50.3653 32.5792 50.8544C32.0901 51.3723 31.4715 51.6312 30.7235 51.6312C29.9755 51.6312 29.3569 51.3867 28.8678 50.8976C28.3787 50.4085 28.1341 49.7755 28.1341 48.9987V22.544C28.1341 21.7959 28.3787 21.1773 28.8678 20.6882C29.3569 20.1704 29.9755 19.9114 30.7235 19.9114C31.4715 19.9114 32.0901 20.1704 32.5792 20.6882C33.0683 21.1773 33.3129 21.7959 33.3129 22.544V22.7166C34.0034 21.8535 34.9672 21.1054 36.2043 20.4725C37.4415 19.8107 38.7362 19.4799 40.0884 19.4799ZM39.4411 38.6844C41.2824 38.6844 42.7929 37.9939 43.9725 36.6129C45.1521 35.2319 45.7419 33.5056 45.7419 31.4341C45.7419 29.3626 45.1521 27.6508 43.9725 26.2985C42.8216 24.9175 41.3112 24.227 39.4411 24.227C37.571 24.227 36.0461 24.9175 34.8665 26.2985C33.6869 27.6508 33.0971 29.3626 33.0971 31.4341C33.0971 33.5056 33.6869 35.2319 34.8665 36.6129C36.0461 37.9939 37.571 38.6844 39.4411 38.6844ZM73.7091 19.4799C74.4572 19.4799 75.0757 19.7244 75.5648 20.2135C76.0539 20.7026 76.2985 21.3356 76.2985 22.1124V40.3675C76.2985 41.1155 76.0539 41.7485 75.5648 42.2663C75.0757 42.7554 74.4572 43 73.7091 43C72.9611 43 72.3425 42.7554 71.8534 42.2663C71.3931 41.7772 71.1485 41.1587 71.1197 40.4106C70.4005 41.245 69.4223 41.9643 68.1851 42.5684C66.9767 43.1439 65.6964 43.4316 64.3442 43.4316C62.359 43.4316 60.5609 42.9281 58.9497 41.9211C57.3385 40.8853 56.0582 39.4612 55.1088 37.6486C54.1881 35.8361 53.7278 33.779 53.7278 31.4773C53.7278 29.1756 54.1881 27.1185 55.1088 25.306C56.0295 23.4646 57.281 22.0405 58.8634 21.0335C60.4745 19.9977 62.2439 19.4799 64.1716 19.4799C65.5526 19.4799 66.8473 19.7388 68.0557 20.2567C69.264 20.7458 70.2854 21.3787 71.1197 22.1556V22.1124C71.1197 21.3644 71.3643 20.7458 71.8534 20.2567C72.3425 19.7388 72.9611 19.4799 73.7091 19.4799ZM64.9916 38.6844C66.8617 38.6844 68.3865 38.0083 69.5661 36.656C70.7457 35.275 71.3355 33.5488 71.3355 31.4773C71.3355 29.4058 70.7457 27.6795 69.5661 26.2985C68.3865 24.9175 66.8617 24.227 64.9916 24.227C63.1502 24.227 61.6398 24.9175 60.4602 26.2985C59.2806 27.6795 58.6908 29.4058 58.6908 31.4773C58.6908 33.5488 59.2662 35.275 60.417 36.656C61.5966 38.0083 63.1215 38.6844 64.9916 38.6844ZM98.5381 19.9114C99.2861 19.9114 99.9047 20.1704 100.394 20.6882C100.883 21.1773 101.127 21.7959 101.127 22.544V40.8853C101.127 44.6256 100.12 47.3444 98.1065 49.0419C96.0926 50.7681 93.4025 51.6312 90.0363 51.6312C89.0581 51.6312 88.0511 51.5449 87.0154 51.3723C86.0084 51.2284 85.1884 51.0271 84.5555 50.7681C83.1457 50.1639 82.4408 49.3296 82.4408 48.2651C82.4408 48.0637 82.484 47.8335 82.5703 47.5746C82.7429 46.9416 83.0306 46.4525 83.4334 46.1072C83.865 45.7908 84.3253 45.6325 84.8144 45.6325C85.1021 45.6325 85.3754 45.6757 85.6344 45.762C85.8358 45.8483 86.181 45.9922 86.6701 46.1936C87.188 46.395 87.7203 46.5532 88.2669 46.6683C88.8423 46.8121 89.4321 46.8841 90.0363 46.8841C92.079 46.8841 93.5751 46.4381 94.5246 45.5462C95.5028 44.6831 95.9919 43.187 95.9919 41.058V40.6264C94.4958 42.4965 92.1654 43.4316 89.0006 43.4316C87.5045 43.4316 86.181 43.0863 85.0302 42.3958C83.8794 41.6765 82.9875 40.6983 82.3545 39.4612C81.7216 38.1953 81.4051 36.7567 81.4051 35.1456V22.544C81.4051 21.7959 81.6496 21.1773 82.1387 20.6882C82.6278 20.1704 83.2464 19.9114 83.9944 19.9114C84.7425 19.9114 85.3611 20.1704 85.8502 20.6882C86.3393 21.1773 86.5838 21.7959 86.5838 22.544V33.5919C86.5838 35.4045 86.9722 36.7136 87.749 37.5192C88.5546 38.296 89.7198 38.6844 91.2447 38.6844C92.7408 38.6844 93.8916 38.2528 94.6972 37.3897C95.5315 36.4978 95.9487 35.2319 95.9487 33.5919V22.544C95.9487 21.7959 96.1933 21.1773 96.6824 20.6882C97.1715 20.1704 97.79 19.9114 98.5381 19.9114Z" transform="translate(-2.64557 -18.8571)" fill="white"/>
</svg>
